<?xml version="1.0"?>
<svg xmlns="http://www.w3.org/2000/svg" xmlns:xlink="http://www.w3.org/1999/xlink" version="1.1" id="Layer_1" x="0px" y="0px" viewBox="0 0 512.001 512.001" style="enable-background:new 0 0 512.001 512.001;" xml:space="preserve" width="512px" height="512px" class=""><g><g>
	<path style="fill:#64FFDA" d="M388.414,123.587l3.836-42.186c0.374-4.114,2.178-7.965,5.099-10.886l52.858-52.86   c3.447-3.447,9.037-3.447,12.484,0l31.654,31.654c3.447,3.447,3.447,9.037,0,12.484l-52.86,52.86   c-2.921,2.921-6.773,4.725-10.886,5.099L388.414,123.587z" data-original="#FF6464" class="active-path" data-old_color="#64ffda"/>
	<circle style="fill:#64FFDA" cx="211.862" cy="300.139" r="211.862" data-original="#FF6464" class="active-path" data-old_color="#64ffda"/>
</g><circle style="fill:#FFFFFF;" cx="211.862" cy="300.139" r="158.897" data-original="#FFFFFF"/><circle style="fill:#64FFDA" cx="211.862" cy="300.139" r="105.931" data-original="#FF6464" class="active-path" data-old_color="#64ffda"/><circle style="fill:#FFFFFF;" cx="211.862" cy="300.139" r="52.966" data-original="#FFFFFF"/><path style="fill:#464655;" d="M211.862,308.966c-2.259,0-4.518-0.862-6.241-2.586c-3.448-3.448-3.448-9.035,0-12.483l291.31-291.31  c3.448-3.448,9.035-3.448,12.483,0c3.448,3.448,3.448,9.034,0,12.482l-291.31,291.31  C216.38,308.105,214.121,308.966,211.862,308.966z" data-original="#464655" class=""/><path style="fill:#64FFDA" d="M509.414,2.587c-3.448-3.448-9.035-3.448-12.483,0l-15.069,15.069l12.483,12.482l15.069-15.069  C512.862,11.621,512.862,6.036,509.414,2.587z" data-original="#FF6464" class="active-path" data-old_color="#64ffda"/></g> </svg>
